<?xml version="1.0" encoding="utf-8"?>
<!-- Generator: Adobe Illustrator 24.1.1, SVG Export Plug-In . SVG Version: 6.00 Build 0)  -->
<svg version="1.1" id="Layer_1" xmlns="http://www.w3.org/2000/svg" xmlns:xlink="http://www.w3.org/1999/xlink" x="0px" y="0px"
	 viewBox="0 0 118.4 61.5" style="enable-background:new 0 0 118.4 61.5;" xml:space="preserve">
<style type="text/css">
	.st0{fill:#FFFFFF;}
</style>
<g id="Layer_2_1_">
	<g id="Слой_1">
		<path class="st0" d="M15.9,0v4.7H5.8v2.4h7.3v4.5H5.8v2.8h10.4v4.9H0V0H15.9z"/>
		<path class="st0" d="M41.3,0h8.4c5.6,0,8.4,2.3,8.4,6.8c0.1,1.8-0.6,3.6-2,4.8c-1.5,1.1-3.4,1.7-5.3,1.6h-3.6v5.9h-5.9V0z
			 M47.2,4.7v4.1H50c1.6,0,2.4-0.7,2.4-2s-0.8-2-2.5-2L47.2,4.7z"/>
		<path class="st0" d="M70.2,0c2.6-0.1,5.1,0.8,7,2.7c1.8,1.9,2.8,4.4,2.6,7c0.1,2.6-0.9,5.1-2.7,6.9c-1.9,1.8-4.4,2.8-7,2.6
			c-2.7,0.1-5.3-0.8-7.2-2.7c-1.9-1.8-2.8-4.4-2.7-7c-0.1-2.6,0.9-5.2,2.7-7C65,0.8,67.6-0.2,70.2,0z M70.1,4.5
			c-1.1,0-2.1,0.5-2.8,1.3c-0.7,1.1-1.1,2.4-1,3.7c-0.1,1.3,0.3,2.7,1,3.8c0.7,0.9,1.7,1.4,2.8,1.4c1.1,0.1,2.1-0.5,2.8-1.4
			c0.7-1.2,1-2.6,0.9-3.9c0.1-1.3-0.3-2.5-1-3.6C72.2,4.9,71.2,4.4,70.1,4.5z"/>
		<polygon class="st0" points="32.2,9.5 38.5,0 32.2,0 28.8,5.6 25.3,0 19,0 25.3,9.5 18.5,19.2 24.8,19.2 28.8,13.5 32.7,19.2 
			32.7,19.2 39,19.2 		"/>
		<path class="st0" d="M36.2,40.6v5H21.8V26.4h5.9v14.2H36.2z"/>
		<path class="st0" d="M44.4,26.4v19.2h-5.9V26.4H44.4z"/>
		<path class="st0" d="M68.9,26.4v19.2h-5.5v-2.9c0-3.4,0.1-6.1,0.2-10L60,45.6h-4.4l-3.7-12.9c0.1,2.9,0.2,5.4,0.2,9.2v3.7h-5.5
			V26.4h8.4l1.2,5c0.7,2.7,1.2,4.2,1.5,6.4c0.3-1.5,0.8-3.1,1.6-6.5l1.2-4.9L68.9,26.4z"/>
		<path class="st0" d="M71.2,26.4h8.4c5.6,0,8.4,2.3,8.4,6.8c0.1,1.8-0.6,3.6-2,4.8c-1.5,1.2-3.4,1.7-5.3,1.6h-3.7v5.9h-5.9V26.4z
			 M77.1,31.1v4.1h2.8c1.6,0,2.4-0.7,2.4-2s-0.8-2-2.5-2L77.1,31.1z"/>
		<path class="st0" d="M96.1,26.4v19.2h-5.9V26.4H96.1z"/>
		<path class="st0" d="M111.3,26.4l7.1,19.2h-6l-1-2.7h-6.2l-0.9,2.7h-6l7.1-19.2H111.3z M110.2,38.8l-1-3.3
			c-0.2-0.8-0.5-1.7-0.7-2.9c-0.3,1.2-0.6,2.1-0.8,2.9c-0.2,0.8-0.6,1.9-1,3.3H110.2z"/>
		<path class="st0" d="M9.9,26.5c2.6-0.1,5.1,0.8,7,2.7c1.8,1.9,2.8,4.4,2.6,7c0.1,2.6-0.9,5.1-2.7,6.9c-1.9,1.8-4.4,2.8-7,2.7
			c-2.6,0.1-5.2-0.8-7.1-2.7c-1.8-1.9-2.8-4.4-2.7-7c-0.1-2.6,0.9-5.1,2.7-7C4.7,27.2,7.2,26.3,9.9,26.5z M9.8,31
			c-1.1-0.1-2.1,0.4-2.8,1.3c-0.7,1.1-1.1,2.4-1,3.7c-0.1,1.3,0.3,2.7,1,3.8c0.7,0.9,1.7,1.4,2.8,1.3c1.1,0.1,2.1-0.5,2.8-1.3
			c0.7-1.2,1-2.6,0.9-3.9c0.1-1.3-0.3-2.5-1-3.6C11.9,31.4,10.9,30.9,9.8,31z"/>
	</g>
</g>
<g>
	<path class="st0" d="M1.1,58.7c0,0.5,0.1,0.9,0.3,1.2c0.4,0.6,1,0.9,2,0.9c0.4,0,0.8-0.1,1.2-0.2c0.7-0.2,1-0.7,1-1.3
		c0-0.5-0.1-0.8-0.4-1c-0.3-0.2-0.7-0.4-1.4-0.5l-1.1-0.3c-0.7-0.2-1.3-0.4-1.6-0.6c-0.5-0.4-0.8-0.9-0.8-1.6c0-0.8,0.3-1.4,0.8-1.9
		c0.5-0.5,1.3-0.7,2.2-0.7c0.9,0,1.6,0.2,2.2,0.7c0.6,0.4,0.9,1.1,0.9,2.1H5.3C5.3,55,5.2,54.6,5,54.4c-0.3-0.4-0.9-0.7-1.7-0.7
		c-0.7,0-1.1,0.1-1.4,0.4c-0.3,0.3-0.4,0.6-0.4,1c0,0.4,0.2,0.7,0.5,0.9c0.2,0.1,0.7,0.3,1.5,0.5l1.2,0.3c0.6,0.1,1,0.3,1.3,0.5
		c0.5,0.4,0.8,1,0.8,1.8c0,1-0.3,1.6-1,2c-0.7,0.4-1.5,0.6-2.4,0.6c-1,0-1.9-0.3-2.5-0.8C0.3,60.4,0,59.7,0,58.7H1.1z"/>
	<path class="st0" d="M14.6,52.9v1h-2.9v7.6h-1.2v-7.6H7.6v-1H14.6z"/>
	<path class="st0" d="M16.9,52.9v5.3c0,0.6,0.1,1.1,0.4,1.6c0.3,0.6,0.9,0.9,1.8,0.9c1,0,1.7-0.3,2-1c0.2-0.4,0.3-0.9,0.3-1.5v-5.3
		h1.2v4.8c0,1.1-0.1,1.9-0.4,2.4c-0.5,1-1.5,1.6-3,1.6s-2.4-0.5-3-1.6c-0.3-0.6-0.4-1.4-0.4-2.4v-4.8H16.9z"/>
	<path class="st0" d="M24.4,52.9h3.4c1.2,0,2.1,0.4,2.7,1.3c0.6,0.8,0.9,1.7,0.9,2.9c0,0.9-0.2,1.7-0.5,2.5c-0.6,1.3-1.6,2-3.1,2
		h-3.4V52.9z M27.6,60.5c0.4,0,0.7,0,1-0.1c0.4-0.2,0.8-0.4,1.1-0.9c0.2-0.3,0.4-0.8,0.5-1.3c0.1-0.3,0.1-0.6,0.1-0.9
		c0-1.1-0.2-1.9-0.6-2.5c-0.4-0.6-1.1-0.9-2-0.9h-2v6.6H27.6z"/>
	<path class="st0" d="M33.1,52.9h6.2V54h-5.1v2.6H39v1h-4.7v2.9h5.2v1h-6.3V52.9z"/>
	<path class="st0" d="M41,52.9h1.4l4.3,7v-7h1.1v8.6h-1.3l-4.4-6.9v6.9H41V52.9z"/>
	<path class="st0" d="M55.9,52.9v1H53v7.6h-1.2v-7.6h-2.9v-1H55.9z"/>
</g>
</svg>
